<?xml version="1.0" encoding="iso-8859-1"?>
<!-- Uploaded to: SVG Repo, www.svgrepo.com, Generator: SVG Repo Mixer Tools -->
<svg height="800px" width="800px" version="1.1" id="Layer_1" xmlns="http://www.w3.org/2000/svg" xmlns:xlink="http://www.w3.org/1999/xlink" 
	 viewBox="0 0 512 512" xml:space="preserve">
<circle style="fill:#FFFFFF;" cx="256" cy="256" r="245.551"/>
<path style="fill:#0B3CA0;" d="M256,501.551c135.614,0,245.551-109.937,245.551-245.551S391.614,10.449,256,10.449V501.551z"/>
<path d="M421.457,334.019c-1.314,0-2.65-0.25-3.941-0.776c-5.344-2.18-7.908-8.278-5.729-13.621
	c25.648-62.888,11.192-134.556-36.827-182.58c-4.08-4.08-4.08-10.697,0.001-14.777c4.08-4.08,10.696-4.079,14.777,0.001
	c53.982,53.987,70.233,134.552,41.401,205.248C429.484,331.564,425.579,334.019,421.457,334.019z"/>
<path d="M391.997,382.349c-2.398,0-4.809-0.821-6.776-2.499c-4.39-3.745-4.913-10.341-1.167-14.731
	c1.449-1.699,2.929-3.504,4.395-5.361c3.576-4.529,10.145-5.304,14.676-1.727c4.531,3.575,5.304,10.146,1.728,14.676
	c-1.631,2.066-3.28,4.076-4.901,5.977C397.885,381.104,394.949,382.349,391.997,382.349z"/>
<path d="M129.653,392.796c-2.675,0-5.348-1.021-7.388-3.06c-53.982-53.988-70.233-134.553-41.4-205.248
	c2.179-5.344,8.28-7.906,13.621-5.729c5.344,2.18,7.908,8.278,5.729,13.621c-25.649,62.888-11.193,134.556,36.826,182.58
	c4.08,4.08,4.08,10.697-0.001,14.777C135.001,391.776,132.327,392.796,129.653,392.796z"/>
<path d="M115.343,156.219c-2.266,0-4.549-0.735-6.467-2.248c-4.531-3.575-5.304-10.146-1.728-14.676
	c1.631-2.066,3.28-4.076,4.901-5.977c3.745-4.39,10.34-4.913,14.731-1.168c4.39,3.745,4.913,10.34,1.167,14.731
	c-1.449,1.699-2.929,3.504-4.395,5.361C121.49,154.856,118.432,156.219,115.343,156.219z"/>
<path d="M437.019,74.981C388.668,26.628,324.38,0,256,0S123.332,26.628,74.981,74.981S0,187.62,0,256s26.628,132.668,74.981,181.019
	S187.62,512,256,512s132.668-26.628,181.019-74.981S512,324.38,512,256S485.372,123.332,437.019,74.981z M20.898,256
	c0-126.133,99.848-229.371,224.653-234.858v469.715C120.746,485.371,20.898,382.133,20.898,256z M266.449,490.858V21.142
	C391.253,26.629,491.102,129.867,491.102,256S391.253,485.371,266.449,490.858z"/>
</svg>